<svg width="111" height="47" viewBox="0 0 111 47" fill="none" xmlns="http://www.w3.org/2000/svg">
<path d="M14.7158 46.976C10.6624 46.976 7.29175 45.824 4.60375 43.52C1.78775 41.0027 0.37975 37.76 0.37975 33.792C0.37975 30.1227 1.68108 26.9867 4.28375 24.384C6.97175 21.7813 10.1291 20.48 13.7558 20.48C16.3584 20.48 18.6411 21.2267 20.6038 22.72C22.7371 24.2987 23.8038 26.368 23.8038 28.928C23.8038 31.4027 22.9718 33.3867 21.3078 34.88C19.6864 36.2453 17.6384 36.928 15.1638 36.928C13.4998 36.928 12.4118 36.736 11.8998 36.352L11.8358 36.224C11.9638 36.0533 12.0918 35.968 12.2198 35.968C12.2624 35.968 12.3051 35.9893 12.3478 36.032C12.5611 36.16 12.8811 36.2453 13.3078 36.288C13.7771 36.3307 14.3104 36.352 14.9078 36.352C17.2544 36.352 19.1104 35.6693 20.4758 34.304C21.8411 32.9813 22.5238 31.1467 22.5238 28.8C22.5238 26.496 21.7344 24.64 20.1558 23.232C18.5771 21.8667 16.6571 21.184 14.3958 21.184C10.8971 21.184 8.01708 22.3147 5.75575 24.576C3.53708 26.7947 2.42775 29.6747 2.42775 33.216C2.42775 37.056 3.66508 40.0853 6.13975 42.304C8.52908 44.4373 11.6864 45.504 15.6118 45.504C24.0598 45.504 32.9558 39.2107 42.2998 26.624C49.5104 16.9813 55.1638 10.9867 59.2598 8.64L45.8198 4.096C44.8811 3.75467 43.9211 3.52 42.9398 3.392C42.0011 3.264 41.0411 3.2 40.0598 3.2C36.7318 3.2 33.6811 4.07466 30.9078 5.824C27.7931 7.872 26.2358 10.4747 26.2358 13.632C26.2358 15.0827 26.5771 16.4907 27.2598 17.856C28.7104 20.8853 31.4838 22.4 35.5798 22.4C35.9211 22.4 36.2411 22.4 36.5398 22.4C36.8384 22.4 37.1371 22.3787 37.4358 22.336C39.3131 22.08 40.9984 21.2267 42.4918 19.776C44.1558 18.1547 44.9878 16.4907 44.9878 14.784C44.9878 13.504 44.4544 12.544 43.3878 11.904C43.3451 11.8613 43.3238 11.7973 43.3238 11.712C43.3238 11.6267 43.3664 11.584 43.4518 11.584C43.4944 11.584 43.5158 11.6053 43.5158 11.648C43.5584 11.648 43.6011 11.648 43.6438 11.648H43.8358C45.2011 12.3733 45.8838 13.5467 45.8838 15.168C45.8838 16.9173 45.1371 18.5813 43.6438 20.16C42.2784 21.5253 40.6571 22.4427 38.7798 22.912C37.6278 23.2107 36.3904 23.36 35.0678 23.36C32.0811 23.36 29.5424 22.4213 27.4518 20.544C25.3184 18.5387 24.2518 16.0427 24.2518 13.056C24.2518 9.344 25.7664 6.35733 28.7958 4.096C31.5264 2.00533 34.7904 0.959999 38.5878 0.959999C38.8438 0.959999 39.0784 0.959999 39.2918 0.959999C39.5478 0.959999 39.7824 0.981332 39.9958 1.024C45.0731 1.45066 50.6411 3.17867 56.6998 6.208C57.1264 6.37866 57.6171 6.63466 58.1718 6.976C58.7691 7.27467 59.4518 7.65867 60.2198 8.128C62.2251 6.592 64.6571 5.824 67.5158 5.824C68.1131 5.824 68.6891 5.888 69.2438 6.016C69.8411 6.10133 70.3531 6.272 70.7798 6.528C71.9744 7.168 72.5718 8.064 72.5718 9.216C72.5718 11.1787 71.5051 12.16 69.3717 12.16C68.7318 12.16 68.0064 12.0533 67.1958 11.84C66.4278 11.6267 65.8944 11.4347 65.5958 11.264C65.1691 11.904 64.7211 12.5867 64.2518 13.312C63.7824 14.0373 63.2918 14.8267 62.7798 15.68C62.0971 16.832 60.8811 19.5627 59.1318 23.872C58.4491 25.5787 57.7238 27.072 56.9558 28.352C56.2304 29.632 55.4411 30.7413 54.5878 31.68C51.1318 35.4347 47.1638 38.1867 42.6838 39.936C42.7691 39.936 42.8758 39.936 43.0038 39.936C43.1744 39.8933 43.3878 39.872 43.6438 39.872H44.6038C45.4998 39.872 46.3104 39.9147 47.0358 40C47.8038 40.0853 48.5078 40.192 49.1478 40.32C51.6651 40.96 53.1371 41.28 53.5638 41.28C54.3318 41.28 54.7158 40.96 54.7158 40.32C54.7158 40.064 54.6731 39.8507 54.5878 39.68C54.5451 39.5093 54.5238 39.3813 54.5238 39.296C54.5238 39.168 54.5238 39.0827 54.5238 39.04C54.5238 38.9973 54.5238 38.976 54.5238 38.976C54.5664 38.9333 54.5878 38.912 54.5878 38.912C54.6304 38.912 54.6731 38.9333 54.7158 38.976C55.0998 39.36 55.2918 39.872 55.2918 40.512C55.2918 42.1333 54.2038 42.944 52.0278 42.944C51.6011 42.944 51.1318 42.9013 50.6198 42.816C50.1078 42.7307 49.5531 42.56 48.9558 42.304L46.0758 41.152C45.3078 40.8107 44.5184 40.5973 43.7078 40.512C42.8971 40.4693 42.0651 40.448 41.2118 40.448L41.1478 40.256C43.6651 38.464 45.9904 36.352 48.1238 33.92C49.6598 32.2133 51.4731 29.632 53.5638 26.176C53.6918 25.9627 53.9478 25.536 54.3318 24.896H44.6678C42.2784 28.3093 40.0384 31.2747 37.9478 33.792C35.8571 36.2667 33.9371 38.2507 32.1878 39.744C26.7264 44.5653 20.9024 46.976 14.7158 46.976ZM68.2838 11.648C70.4598 11.648 71.5478 10.8587 71.5478 9.28C71.5478 8.34133 71.1638 7.616 70.3958 7.104C69.7131 6.592 68.8811 6.336 67.8997 6.336C65.2544 6.336 62.8651 7.01867 60.7318 8.384C61.4144 8.68267 62.0971 9.024 62.7798 9.408C63.4624 9.74933 64.1451 10.0907 64.8278 10.432L67.5798 7.616C67.6651 7.616 67.7078 7.65866 67.7078 7.744C67.7078 8 67.0891 9.06667 65.8518 10.944C66.6624 11.4133 67.4731 11.648 68.2838 11.648ZM45.1798 24.192H54.7798C57.4678 19.7547 60.6678 15.2747 64.3798 10.752L59.8998 8.896C58.8331 9.57866 57.6171 10.496 56.2518 11.648C54.9291 12.8 53.4998 14.208 51.9638 15.872C49.3184 18.7733 47.0571 21.5467 45.1798 24.192ZM64.8718 42.048C61.1171 42.048 59.2398 41.0027 59.2398 38.912C59.2398 37.9307 59.7731 37.184 60.8398 36.672C61.6931 36.2453 62.6744 36.032 63.7838 36.032C65.3198 36.032 68.2851 36.928 72.6798 38.72C73.9171 37.7387 75.1118 36.5227 76.2638 35.072C77.4158 33.6213 78.5038 31.9147 79.5278 29.952C80.3811 28.288 81.2131 26.6027 82.0238 24.896C82.8344 23.1893 83.6451 21.4827 84.4558 19.776C87.8691 12.736 91.7731 7.59466 96.1678 4.352C92.4558 2.73066 88.6798 1.92 84.8398 1.92C80.2744 1.92 76.2851 2.64533 72.8718 4.096C68.7331 5.84533 65.6824 8.46933 63.7198 11.968C62.5251 14.1013 61.9278 16.32 61.9278 18.624C61.9278 20.8853 62.5678 22.7627 63.8478 24.256C65.2131 25.792 67.0264 26.56 69.2878 26.56C72.0611 26.56 74.5784 25.6213 76.8398 23.744C79.2718 21.824 80.4878 19.4773 80.4878 16.704C80.4878 15.2533 79.9118 13.952 78.7598 12.8C77.6078 11.6907 76.2638 11.136 74.7278 11.136C73.3624 11.136 72.1251 11.584 71.0158 12.48C69.9064 13.4613 69.3518 14.6133 69.3518 15.936C69.3518 17.0027 69.9064 17.536 71.0158 17.536C71.3998 17.536 71.5918 17.6 71.5918 17.728C71.5918 17.9413 71.3784 18.048 70.9518 18.048C69.4158 18.048 68.6478 17.344 68.6478 15.936C68.6478 14.3147 69.2664 13.0133 70.5038 12.032C71.7411 11.008 73.1278 10.496 74.6638 10.496C76.6264 10.496 78.2478 11.2 79.5278 12.608C80.8078 13.9307 81.4478 15.552 81.4478 17.472C81.4478 20.3733 80.1891 22.784 77.6718 24.704C75.4104 26.4533 72.7864 27.328 69.7998 27.328C66.8984 27.328 64.4451 26.4533 62.4398 24.704C60.3491 22.8693 59.3038 20.5227 59.3038 17.664C59.3038 16.9387 59.3678 16.192 59.4958 15.424C59.6664 14.656 59.8798 13.888 60.1358 13.12C61.7571 8.768 64.8504 5.568 69.4158 3.52C73.2131 1.856 77.7144 1.024 82.9198 1.024C87.9544 1.024 92.7331 1.89867 97.2558 3.648C100.157 1.68533 102.994 0.703999 105.768 0.703999C106.194 0.703999 106.429 0.789332 106.472 0.959999C106.472 0.959999 106.322 1.00267 106.024 1.088C104.829 1.30133 103.869 1.472 103.144 1.6C102.461 1.728 102.013 1.83467 101.8 1.92C101.117 2.09067 100.434 2.34667 99.7518 2.688C99.1118 3.02933 98.4931 3.43466 97.8958 3.904C106.386 7.488 110.632 12.8427 110.632 19.968C110.632 20.6507 110.589 21.3333 110.504 22.016C110.418 22.656 110.29 23.3173 110.12 24C108.712 29.9733 105.49 34.4747 100.456 37.504C96.0184 40.1493 90.5144 41.472 83.9438 41.472C79.8904 41.472 76.4771 40.9387 73.7038 39.872C70.9731 41.3227 68.0291 42.048 64.8718 42.048ZM82.9198 40.96C89.5331 40.96 95.1224 39.1893 99.6878 35.648C104.637 31.8507 107.112 26.7093 107.112 20.224H107.176C107.176 13.2267 103.762 8.064 96.9358 4.736C94.0344 7.46667 91.3251 12.2667 88.8078 19.136C85.1384 29.2053 80.3598 35.968 74.4718 39.424C77.2451 40.448 80.0611 40.96 82.9198 40.96ZM65.0638 41.536C67.4958 41.536 69.7998 40.768 71.9758 39.232C68.3491 37.824 65.6611 37.12 63.9118 37.12C61.5651 37.12 60.3918 37.888 60.3918 39.424C60.3918 40.832 61.9491 41.536 65.0638 41.536Z" fill="white"/>
</svg>
